<?xml version="1.0" encoding="UTF-8" standalone="no"?>
<!DOCTYPE svg PUBLIC "-//W3C//DTD SVG 1.1//EN" "http://www.w3.org/Graphics/SVG/1.1/DTD/svg11.dtd">
<svg xmlns="http://www.w3.org/2000/svg" version="1.1" viewBox="0.00 0.00 500.00 500.00">
<path fill="#0ea5e9" d="
  M 215.72 51.99
  Q 236.11 78.79 255.13 104.34
  C 268.89 122.82 281.15 141.98 289.03 162.74
  C 315.54 232.52 263.50 281.19 230.81 336.03
  C 214.97 362.60 205.38 390.35 214.71 421.23
  A 0.26 0.26 0.0 0 1 214.26 421.48
  C 189.31 394.23 176.95 361.16 187.19 324.26
  Q 193.77 300.55 206.67 278.38
  Q 210.22 272.28 222.04 251.28
  C 238.75 221.60 244.54 186.84 244.00 153.25
  Q 243.62 130.13 234.88 103.52
  Q 226.25 77.24 215.13 52.35
  A 0.35 0.35 0.0 0 1 215.72 51.99
  Z"
/>
<path fill="#0891b2" d="
  M 389.29 358.79
  C 369.70 405.31 328.86 438.37 279.52 448.71
  C 273.38 449.99 263.04 450.05 256.69 448.42
  C 236.63 443.27 228.39 425.62 227.16 406.12
  C 225.45 378.91 235.36 356.76 250.96 334.90
  Q 266.56 313.05 282.21 291.22
  C 299.01 267.79 311.86 241.20 313.07 212.50
  C 313.85 194.08 309.88 175.24 302.61 158.33
  A 0.42 0.42 0.0 0 1 303.15 157.78
  Q 363.49 181.93 389.47 241.02
  C 405.42 277.29 404.76 322.07 389.29 358.79
  Z"
/>
<ellipse fill="#0891b2" cx="0.00" cy="0.00" transform="translate(179.15,224.71) rotate(119.7)" rx="39.42" ry="27.74"/>
<path fill="#7dd3fc" d="
  M 189.15 278.00
  C 177.48 299.50 169.10 323.43 167.98 347.24
  C 166.75 373.77 177.55 400.88 194.10 421.66
  Q 203.72 433.75 216.37 447.09
  A 0.43 0.43 0.0 0 1 215.96 447.80
  C 150.39 432.20 101.09 374.78 98.75 306.90
  Q 96.41 238.78 145.65 189.62
  A 0.57 0.57 0.0 0 1 146.58 190.22
  Q 139.10 209.69 133.62 230.29
  C 129.38 246.26 122.56 278.41 133.74 292.20
  C 147.27 308.91 177.35 287.23 188.85 277.75
  A 0.20 0.20 0.0 0 1 189.15 278.00
  Z"
/>
</svg>
